<?xml version="1.0" standalone="no"?>
<!DOCTYPE svg PUBLIC "-//W3C//DTD SVG 20010904//EN"
 "http://www.w3.org/TR/2001/REC-SVG-20010904/DTD/svg10.dtd">
<svg version="1.0" xmlns="http://www.w3.org/2000/svg"
 width="512.000000pt" height="512.000000pt" viewBox="0 0 512.000000 512.000000"
 preserveAspectRatio="xMidYMid meet">

<g transform="translate(0.000000,512.000000) scale(0.100000,-0.100000)"
fill="#000000" stroke="none">
<path d="M1210 4897 c-27 -8 -146 -120 -493 -466 -267 -266 -467 -473 -480
-496 -27 -51 -28 -136 -3 -185 25 -49 901 -926 951 -952 90 -47 208 -17 269
70 40 57 48 149 18 208 -11 21 -133 151 -271 289 -138 137 -251 253 -251 257
0 5 746 7 1658 6 l1657 -3 5 -370 c6 -410 4 -401 74 -463 80 -70 196 -68 276
4 71 64 71 68 68 529 l-3 410 -34 70 c-44 90 -120 166 -208 208 l-68 32 -1712
3 c-942 1 -1713 6 -1713 10 0 4 113 120 251 257 138 138 259 267 270 287 25
49 25 136 0 186 -50 97 -155 141 -261 109z"/>
<path d="M3766 2335 c-47 -16 -103 -69 -122 -112 -20 -47 -18 -137 5 -181 11
-20 132 -149 270 -287 138 -137 251 -253 251 -257 0 -5 -746 -7 -1657 -6
l-1658 3 -5 356 -5 356 -25 36 c-14 21 -43 50 -64 65 -35 24 -49 27 -116 27
-67 0 -81 -3 -116 -27 -21 -15 -50 -44 -64 -65 l-25 -37 0 -410 0 -411 32 -68
c42 -88 118 -164 208 -208 l70 -34 1713 -3 c941 -1 1712 -5 1712 -9 0 -4 -119
-127 -264 -273 -274 -275 -286 -290 -286 -370 0 -78 53 -159 125 -191 49 -23
123 -24 173 -4 48 20 934 902 964 960 28 54 28 136 0 190 -12 24 -205 223
-479 496 -391 389 -464 457 -499 467 -53 15 -89 15 -138 -3z"/>
</g>
</svg>
