<?xml version="1.0" standalone="no"?>
<!DOCTYPE svg PUBLIC "-//W3C//DTD SVG 20010904//EN"
 "http://www.w3.org/TR/2001/REC-SVG-20010904/DTD/svg10.dtd">
<svg version="1.0" xmlns="http://www.w3.org/2000/svg"
 width="800.000000pt" height="800.000000pt" viewBox="0 0 800.000000 800.000000"
 preserveAspectRatio="xMidYMid meet">

<g transform="translate(0.000000,800.000000) scale(0.100000,-0.100000)"
fill="#000000" stroke="none">
<path d="M1527 6465 l-706 -706 867 -867 c477 -477 873 -875 881 -885 12 -15
-70 -101 -840 -871 -470 -470 -867 -867 -882 -884 l-28 -30 60 -60 c34 -34 61
-59 61 -55 0 3 10 -7 23 -23 29 -37 57 -66 57 -58 0 4 10 -6 23 -22 29 -37 57
-66 57 -58 0 4 10 -6 23 -22 29 -37 57 -66 57 -58 0 4 10 -6 23 -22 29 -37 57
-66 57 -58 0 4 10 -6 23 -22 29 -37 57 -66 57 -58 0 4 10 -6 23 -22 29 -37 57
-66 57 -58 0 4 10 -6 23 -22 29 -37 57 -66 57 -58 0 4 10 -6 23 -22 29 -37 57
-66 57 -58 0 4 10 -6 23 -22 29 -37 57 -66 57 -58 0 4 10 -6 23 -22 29 -37 57
-66 57 -58 0 4 10 -6 23 -22 29 -37 57 -66 57 -58 0 4 10 -6 23 -22 29 -37 57
-66 57 -58 0 4 10 -6 23 -22 29 -37 57 -66 57 -58 0 4 10 -6 23 -22 29 -37 57
-66 57 -58 0 4 10 -6 23 -22 27 -35 57 -66 57 -59 0 3 9 -4 20 -15 11 -11 20
-22 20 -25 0 -3 11 -17 24 -32 l24 -25 881 881 c485 485 886 881 891 881 5 0
404 -394 885 -875 481 -481 879 -875 885 -875 11 0 35 22 68 64 12 16 22 26
22 22 0 -8 28 21 58 58 12 16 22 26 22 22 0 -8 28 21 58 58 12 16 22 26 22 22
0 -8 28 21 58 58 12 16 22 26 22 22 0 -8 28 21 58 58 12 16 22 26 22 22 0 -8
28 21 58 58 12 16 22 26 22 22 0 -8 28 21 58 58 12 16 22 26 22 22 0 -8 28 21
58 58 12 16 22 26 22 22 0 -8 28 21 58 58 12 16 22 26 22 22 0 -8 28 21 58 58
12 16 22 26 22 22 0 -8 28 21 58 58 12 16 22 26 22 22 0 -8 28 21 58 58 12 16
22 26 22 22 0 -8 28 21 58 58 12 16 22 26 22 22 0 -8 28 21 58 58 12 16 22 26
22 22 0 -8 28 21 58 58 12 16 22 26 22 22 0 -8 28 21 58 58 12 16 22 26 22 23
0 -4 27 21 61 54 59 60 60 62 42 81 -10 11 -407 409 -882 884 -777 777 -862
866 -850 881 8 10 404 408 882 885 l867 868 -677 677 c-373 373 -692 690 -709
705 l-32 28 -881 -881 -881 -881 -881 881 c-485 484 -883 881 -884 881 -1 0
-320 -317 -708 -705z"/>
</g>
</svg>
